<svg width="85" height="85" viewBox="0 0 85 85" fill="none" xmlns="http://www.w3.org/2000/svg">
<g id="Group">
<path id="Vector" d="M28.0769 74.2308L5 80L10.7692 62.6923V10.7692C10.7692 9.23914 11.3771 7.77171 12.459 6.68977C13.5409 5.60783 15.0084 5 16.5385 5H74.2308C75.7609 5 77.2283 5.60783 78.3102 6.68977C79.3922 7.77171 80 9.23914 80 10.7692V68.4615C80 69.9916 79.3922 71.4591 78.3102 72.541C77.2283 73.6229 75.7609 74.2308 74.2308 74.2308H28.0769Z" stroke="#3C2525" stroke-width="9" stroke-linecap="round" stroke-linejoin="round"/>
<path id="Vector_2" d="M45.3838 19.4231V36.7308" stroke="#3C2525" stroke-width="9" stroke-linecap="round" stroke-linejoin="round"/>
<path id="Vector_3" d="M45.3846 56.9231C46.9777 56.9231 48.2692 55.6316 48.2692 54.0385C48.2692 52.4454 46.9777 51.1539 45.3846 51.1539C43.7915 51.1539 42.5 52.4454 42.5 54.0385C42.5 55.6316 43.7915 56.9231 45.3846 56.9231Z" stroke="#3C2525" stroke-width="9" stroke-linecap="round" stroke-linejoin="round"/>
</g>
</svg>
